<?xml version="1.0" encoding="UTF-8"?><svg id="Object" xmlns="http://www.w3.org/2000/svg" viewBox="0 0 4680 3120"><defs><style>.cls-1{fill:#fff;}.cls-2{fill:#9cb591;}.cls-3{fill:#49519c;}.cls-4{fill:#431207;}.cls-5{fill:#6881bd;}.cls-6{fill:#63201b;}.cls-7{fill:#edefed;}.cls-8{fill:#0f5e4f;}.cls-9{fill:#ffc2a0;}.cls-10{fill:#dc6c54;}.cls-11{fill:#a0564f;}.cls-12{fill:#fdfdfd;}.cls-13{fill:#39a08f;}.cls-14{fill:#edae63;}.cls-15{fill:#f79b78;}.cls-16{fill:#1d7d6a;}</style></defs><path class="cls-2" d="M3840,2590.981H840c-1.381,0-2.5-1.119-2.5-2.5s1.119-2.5,2.5-2.5H3840c1.381,0,2.5,1.119,2.5,2.5s-1.119,2.5-2.5,2.5Z"/><g><g><g><g><polygon class="cls-4" points="1957.933 2567.732 1951.695 2582.57 1937.005 2584.045 1929.056 2566.843 1918.37 2588.481 1904.509 2588.055 1896.714 2565.848 1890.649 2587.628 1872.938 2587.083 1864.758 2564.864 1859.462 2586.668 1850.606 2586.396 1841.176 2564.138 1788.991 2559.835 1788.233 2584.476 1777.067 2584.132 1766.66 2559.147 1765.902 2583.789 1754.736 2583.445 1747.024 2558.543 1741.645 2583.042 1733.56 2582.793 1727.915 2553.33 1938.617 2556.732 1957.933 2567.732"/><path class="cls-13" d="M1851.614,2210.503c-3.436,38.916-6.904,77.83-10.339,116.746-.994,11.225-2.062,22.707-6.437,33.114-2.692,6.34-6.569,12.156-8.877,18.637-2.487,7.027-3.074,14.534-3.627,21.945-2.229,30.292-4.458,60.552-11.063,92.818-22.019-5.446-44.006-10.891-68.383-15.598,8.09-121.615-58.412-239.429-47.897-360.84,1.962-22.645,6.607-44.981,10.572-67.37,1.844-10.356,3.525-20.748,4.754-31.155,3.871-33.031,2.676-67.97-12.831-97.413,49.306-1.11,98.579-2.221,158.02-.683-1.224,33.437-6.757,66.709-14.52,105.005-.089,10.247-.143,20.463-.231,30.678-.196,33.76-.29,67.394,.118,100.525,13.209,13.446,12.421,34.83,10.741,53.592Z"/><path class="cls-16" d="M1783.822,2173.694c-.779,0-1.104-.242-1.449-.498-.73-.542-1.135-1.502-1.015-2.403,.059-.443,.24-1.794,2.848-2.813l29.274-11.45c1.259-.494,2.686,.107,3.214,1.355,.527,1.248-.036,2.689-1.27,3.249-22.917,10.401-29.277,12.561-31.603,12.561Z"/><path class="cls-16" d="M1791.722,2369.501c-.345,0-.695-.072-1.03-.224-13.859-6.275-17.518-23.083-19.156-37.025-3.687-31.368-5.018-63.275-3.956-94.836,.046-1.381,1.207-2.484,2.583-2.415,1.38,.047,2.461,1.203,2.415,2.583-1.053,31.311,.267,62.965,3.925,94.084,1.485,12.636,4.675,27.812,16.253,33.055,1.258,.569,1.816,2.051,1.246,3.309-.418,.923-1.327,1.47-2.279,1.47Z"/><path class="cls-14" d="M1742.878,2478.151s30.343,10.287,45.467-1.388c15.124-11.674,23.982-17.76,43.387-9.648,19.405,8.112,43.803,41.814,83.733,59.229,39.93,17.415,54.03,28.833,55.39,41.014,1.359,12.182-129.652,5.259-156.618-1.352-26.966-6.611-51.515,1.488-78.544-2.417-20.335-2.938-19.272-18.706-9.898-41.541,9.374-22.835,17.083-43.897,17.083-43.897Z"/><path class="cls-4" d="M1794.93,2537.26c-2.987,0-8.067-1.312-10.526-9.535-6.038-20.191,23.354-52.339,24.609-53.697,.936-1.016,2.516-1.078,3.532-.142,1.015,.936,1.078,2.518,.142,3.532-.288,.312-28.718,31.4-23.493,48.875,1.933,6.463,5.251,6.062,6.341,5.932,7.013-.844,16.631-13.066,17.237-24.893,.96-18.757,3.399-35.422,3.424-35.588,.201-1.365,1.471-2.301,2.838-2.108,1.366,.202,2.31,1.473,2.108,2.839-.024,.164-2.429,16.604-3.377,35.113-.689,13.456-11.607,28.395-21.633,29.601-.341,.041-.747,.071-1.202,.071Z"/><path d="M1840.986,2025.709c-.089,10.247-.143,20.463-.231,30.678-1.46,.02-49.7,.222-135.193-6.431,1.844-10.356,3.525-20.748,4.754-31.155,3.871-33.031,2.676-67.97-12.831-97.413,49.306-1.11,98.579-2.221,158.02-.683-1.224,33.437-6.757,66.709-14.52,105.005Z"/></g><g><polygon class="cls-4" points="1744.498 2567.732 1738.26 2582.57 1723.57 2584.045 1715.621 2566.843 1704.935 2588.481 1691.074 2588.055 1683.279 2565.848 1677.213 2587.628 1659.502 2587.083 1651.322 2564.864 1646.027 2586.668 1637.171 2586.396 1627.74 2564.138 1575.556 2559.835 1574.798 2584.476 1563.632 2584.132 1553.225 2559.147 1552.466 2583.789 1541.301 2583.445 1533.589 2558.543 1528.21 2583.042 1520.125 2582.793 1514.48 2553.33 1725.181 2556.732 1744.498 2567.732"/><path class="cls-13" d="M1638.179,2210.503c-3.436,38.916-6.904,77.83-10.339,116.746-.994,11.225-2.062,22.707-6.437,33.114-2.692,6.34-6.569,12.156-8.877,18.637-2.487,7.027-3.074,14.534-3.627,21.945-2.229,30.292-4.458,60.552-11.063,92.818-22.019-5.446-44.006-10.891-68.383-15.598,8.09-121.615-58.412-239.429-47.897-360.84,1.962-22.645,6.607-44.981,10.572-67.37,1.844-10.356,3.525-20.748,4.754-31.155,3.871-33.031,2.676-67.97-12.831-97.413,49.306-1.11,98.579-2.221,158.02-.683-1.224,33.437-6.757,66.709-14.52,105.005-.089,10.247-.143,20.463-.231,30.678-.196,33.76-.29,67.394,.118,100.525,13.209,13.446,12.421,34.83,10.741,53.592Z"/><path class="cls-16" d="M1570.387,2173.694c-.779,0-1.104-.242-1.449-.498-.73-.542-1.136-1.502-1.015-2.403,.06-.443,.24-1.794,2.848-2.813l29.274-11.45c1.26-.494,2.687,.107,3.214,1.355,.527,1.248-.036,2.689-1.27,3.249-22.917,10.401-29.277,12.561-31.602,12.561Z"/><path class="cls-16" d="M1578.287,2369.501c-.345,0-.695-.072-1.03-.224-13.859-6.274-17.518-23.083-19.156-37.025-3.687-31.363-5.018-63.271-3.957-94.836,.046-1.381,1.188-2.484,2.583-2.415,1.38,.047,2.461,1.203,2.415,2.583-1.053,31.314,.268,62.97,3.925,94.084,1.485,12.636,4.675,27.812,16.253,33.055,1.258,.569,1.815,2.051,1.246,3.309-.418,.923-1.327,1.47-2.279,1.47Z"/><path class="cls-14" d="M1529.443,2478.151s30.343,10.287,45.467-1.388c15.124-11.674,23.982-17.76,43.387-9.648,19.405,8.112,43.803,41.814,83.733,59.229,39.93,17.415,54.03,28.833,55.39,41.014,1.359,12.182-129.652,5.259-156.618-1.352-26.966-6.611-51.515,1.488-78.544-2.417-20.335-2.938-19.272-18.706-9.898-41.541,9.374-22.835,17.083-43.897,17.083-43.897Z"/><path class="cls-4" d="M1581.495,2537.26c-2.987,0-8.067-1.312-10.526-9.535-6.039-20.191,23.354-52.339,24.609-53.697,.936-1.016,2.516-1.078,3.532-.142,1.015,.937,1.078,2.518,.142,3.532-.288,.312-28.719,31.4-23.493,48.875,1.933,6.463,5.253,6.062,6.341,5.932,7.013-.844,16.631-13.066,17.237-24.893,.96-18.757,3.399-35.422,3.424-35.588,.202-1.365,1.47-2.301,2.838-2.108,1.366,.202,2.31,1.473,2.108,2.839-.024,.164-2.429,16.604-3.377,35.113-.689,13.456-11.606,28.395-21.633,29.601-.341,.041-.747,.071-1.202,.071Z"/><path d="M1627.551,2025.709c-.089,10.247-.143,20.463-.231,30.678-1.46,.02-49.7,.222-135.193-6.431,1.844-10.356,3.525-20.748,4.754-31.155,3.871-33.031,2.676-67.97-12.831-97.413,49.306-1.11,98.579-2.221,158.02-.683-1.224,33.437-6.757,66.709-14.52,105.005Z"/></g><path class="cls-16" d="M1890.263,1532.777l-4.248,331.076-1.037,80.244s-20.905,1.305-50.675,1.505c-44.487,.301-108.776-1.806-152.828-14.383l-1.405,23.615s-58.234,8.128-128.31,3.445c-34.017-2.241-70.845-7.526-105.13-18.23,0,0,5.352-50.875,9.5-109.043,2.642-36.727,4.783-76.33,4.783-107.872,0-81.482-8.362-157.41,11.205-216.08l418.143,25.722Z"/><path class="cls-8" d="M1681.482,1933.714c-.115,0-.231-.008-.348-.024-1.368-.19-2.321-1.453-2.131-2.821l42.572-305.257c.191-1.366,1.45-2.322,2.821-2.13,1.368,.19,2.321,1.453,2.131,2.821l-42.572,305.257c-.174,1.25-1.246,2.154-2.473,2.154Z"/><path class="cls-14" d="M1551.761,1958.279c-34.017-2.241-70.845-7.526-105.13-18.23,0,0,5.352-50.875,9.5-109.043,21.608,39.001,55.759,92.854,95.63,127.272Z"/><path class="cls-14" d="M1886.015,1863.853l-1.037,80.244s-20.905,1.305-50.675,1.505c23.447-28.867,41.008-60.241,51.712-81.749Z"/><path class="cls-7" d="M1490.435,1874.667l43.543,2.366s-1.177,26.585-2.84,37.391c-2.366,15.382-40.704,20.465-40.704-4.26v-35.497Z"/></g><g><path class="cls-11" d="M1874.246,643.037s-.513,201.634-79.143,196.653c-78.63-4.98-113.658-36.099-131.719-71.157,0,0-36.7-7.573-36.7-39.468s33.127-25.138,45.783-13.778l8.049-63.786,167.911-34.242,25.82,25.778Z"/><path class="cls-1" d="M1737.193,770.277s47.012,12.209,76.169,2.768c0,0-5.931,40.965-45.068,35.392-39.136-5.572-31.101-38.16-31.101-38.16Z"/><path class="cls-4" d="M1833.872,646.728c-4.474,5.993-12.446,8.53-19.921,8.285s-14.642-2.864-23.391-5.347c-7.2,7.4-20.309,7.894-28.047,1.059-7.09,9.458-21.534,12.417-34.396,7.083-.376,7.169-7.016,13.43-14.195,13.384-.193,4.103-.399,8.274-1.753,12.152-1.355,3.878-4.047,7.492-7.88,8.968,.384,3.489,.765,7.052,.015,10.482-.75,3.429-2.844,6.763-6.103,8.068,.861,6.543-1.213,13.416-5.548,18.391-.838,.961-1.86,1.907-3.129,2.035-1.073,.108-2.107-.392-3.048-.919-5.789-3.245-10.673-8.086-14.742-14.216l-25.569-9.905c-4.001-1.55-8.049-3.125-11.543-5.614-4.625-3.295-8.11-8.161-9.128-13.974-2.302-2.51-4.641-5.075-6.07-8.167-1.429-3.092-1.828-6.853-.212-9.851-6.697-7.124-5.592-20.027,2.316-25.929-2.509-8.171-1.639-17.325,2.364-24.878,4.003-7.553,11.089-13.412,23.422-16.417,5.414-9.106,11.338-18.187,19.685-24.711,8.347-6.524,19.609-10.163,31.585-4.029,8.17-6.221,17.787-10.872,28.011-11.831,10.224-.959,21.067,2.11,27.716,11.797,7.3-5.345,13.475-12.421,21.73-16.124,7.201-3.23,15.506-3.575,23.192-1.785,7.687,1.79,14.792,5.617,22.311,11.295,5.955-.516,11.689-3.13,17.658-2.823,6.117,.315,11.622,3.643,16.749,6.994,6.895,4.505,13.716,9.287,19.22,15.414,5.331,5.934,9.418,14.539,5.087,24.99,8.464,6.043,9.773,19.102,4.469,28.047-5.305,8.945-15.651,13.975-25.971,15.266-8.3,1.038-17.312-.242-24.885-7.19Z"/></g><g><path class="cls-11" d="M2172.133,1015.135l44.709,13.115,344.158-27.024s38.728-24.59,68.355-19.076c29.626,5.514,56.432,16.691,56.432,16.691l-38.45,89.616s-51.365,14.903-92.696,0c0,0-298.853,61.4-323.493,61.4s-108.096-21.758-108.096-21.758l49.08-112.964Z"/><path class="cls-6" d="M2198.721,1022.934s-17.801,83.172-8.186,120.944l-67.483-15.779,49.08-112.964,26.588,7.799Z"/><path class="cls-13" d="M2183.408,1013.35l-53.997,146.045-39.459-29.042-60.208-18.43-97.905,27.461-26.157,414.799s-138.277,55.893-453.8-31.108l29.602-254.278-4.716-296.055,52.314-98.072s39.102-14.952,95.195-22.009c7.559-.97,15.387-1.773,23.515-2.409,4.616-.334,9.299-.602,14.082-.836,25.722-1.104,53.585-.067,81.95,4.783,19.099,3.244,38.332,7.526,57.164,12.342,4.482,1.138,8.931,2.341,13.313,3.546,6.088,1.639,12.108,3.378,18.062,5.118,77.434,22.745,140.318,51.277,140.318,51.277l210.727,86.866Z"/><polygon class="cls-14" points="2089.966 1130.352 2146.811 998.255 2076.263 969.177 2029.75 1111.924 2089.966 1130.352"/><path class="cls-16" d="M1931.854,1141.877c-.106,0-.214-.007-.322-.021-1.37-.176-2.337-1.429-2.161-2.798,.092-.712,9.166-71.684,9.166-110.809,0-1.381,1.119-2.5,2.5-2.5s2.5,1.119,2.5,2.5c0,39.445-9.115,110.731-9.207,111.446-.162,1.261-1.238,2.182-2.477,2.182Z"/><path class="cls-7" d="M1828.173,1033.813l73.124,3.974s-1.977,44.646-4.769,62.791c-3.974,25.832-68.355,34.368-68.355-7.153v-59.612Z"/><path class="cls-16" d="M1788.435,1545.795c-.114,0-.229-.008-.345-.024-74.76-10.326-130.359-37.83-163.837-59.083-36.337-23.07-54.702-43.404-55.466-44.259-.92-1.029-.832-2.609,.197-3.529,1.029-.921,2.609-.833,3.53,.196,.184,.205,18.78,20.772,54.593,43.481,33.031,20.945,87.893,48.052,161.668,58.242,1.368,.189,2.323,1.451,2.134,2.819-.173,1.251-1.245,2.158-2.474,2.158Z"/><path class="cls-16" d="M1814.3,870.089l-36.192,25.221-55.458,12.51-48.267-30.974-26.592-26.592c4.616-.334,9.299-.602,14.082-.836,25.722-1.104,53.585-.067,81.95,4.783,19.099,3.244,38.332,7.526,57.164,12.342,4.482,1.138,8.931,2.341,13.313,3.546Z"/><path class="cls-14" d="M1832.363,875.207c-35.355,28.231-93.623,46.928-93.623,46.928-48.066-12.576-93.322-49.972-114.462-69.473,7.559-.97,15.387-1.773,23.515-2.409,4.616-.334,9.299-.602,14.082-.836,28.365,31.375,76.297,50.073,76.297,50.073,25.622-4.85,49.638-22.01,62.817-32.947,4.482,1.138,8.931,2.341,13.313,3.546,6.088,1.639,12.108,3.378,18.062,5.118Z"/><path class="cls-16" d="M1504.481,1141.877c-.602,0-1.205-.216-1.685-.653-1.02-.931-1.092-2.512-.162-3.532l27.421-30.055c.931-1.02,2.512-1.092,3.532-.162,1.02,.931,1.092,2.512,.162,3.532l-27.421,30.055c-.493,.541-1.169,.815-1.847,.815Z"/></g></g><g><g><g><polygon class="cls-4" points="2704.931 2565.672 2710.933 2581.278 2726.139 2583.279 2734.943 2565.672 2745.347 2588.481 2759.753 2588.481 2768.557 2565.672 2774.159 2588.481 2792.567 2588.481 2801.77 2565.672 2806.572 2588.481 2815.776 2588.481 2826.28 2565.672 2880.603 2562.871 2880.603 2588.481 2892.208 2588.481 2903.812 2562.871 2903.812 2588.481 2915.417 2588.481 2924.221 2562.871 2929.023 2588.481 2937.426 2588.481 2944.229 2558.069 2725.339 2554.867 2704.931 2565.672"/><path class="cls-5" d="M2826.742,2198.143c2.324,40.518,4.681,81.035,7.005,121.553,.674,11.687,1.415,23.644,5.625,34.59,2.593,6.669,6.433,12.832,8.622,19.636,2.357,7.376,2.728,15.19,3.065,22.903,1.347,31.525,2.694,63.016,8.521,96.73,23.037-4.951,46.041-9.902,71.504-14.011-4.513-126.537,68.304-246.743,61.265-373.146-1.314-23.576-5.423-46.917-8.824-70.291-1.583-10.812-2.998-21.657-3.941-32.502-2.963-34.421-.606-70.662,16.436-100.738-51.161-2.728-102.288-5.456-164.058-5.759,.202,34.758,4.884,69.483,11.721,109.495-.236,10.643-.505,21.252-.741,31.862-.876,35.061-1.853,69.988-3.335,104.376-14.146,13.54-14.011,35.769-12.865,55.303Z"/><path class="cls-3" d="M2898.436,2161.983c-2.271,0-8.602-2.289-32.495-14.034-1.216-.597-1.734-2.055-1.17-3.286,.565-1.231,2.009-1.788,3.255-1.256l30.03,12.824c2.623,1.121,2.763,2.486,2.809,2.935,.093,.904-.344,1.854-1.09,2.373-.324,.226-.638,.444-1.339,.444Zm-1.85-.887h0Z"/><path class="cls-3" d="M2883.93,2365.056c-.979,0-1.909-.579-2.309-1.54-.531-1.274,.072-2.738,1.347-3.269,12.235-5.093,16.042-20.78,17.991-33.878,4.793-32.196,7.176-65.028,7.083-97.582-.004-1.381,1.112-2.503,2.493-2.507h.007c1.378,0,2.496,1.114,2.5,2.493,.094,32.804-2.308,65.888-7.138,98.332-2.144,14.398-6.469,31.702-21.015,37.757-.314,.131-.64,.193-.96,.193Z"/><path class="cls-10" d="M2931.095,2479.529s-31.835,9.711-47.166-2.894c-15.331-12.605-24.335-19.208-44.743-11.405-20.408,7.803-46.819,42.017-88.836,58.824-42.017,16.807-57.023,28.212-58.824,40.817-1.801,12.605,134.455,9.604,162.667,3.601,28.212-6.002,53.443,3.191,81.634,0,21.209-2.401,20.608-18.808,11.605-42.818-9.004-24.01-16.335-46.126-16.335-46.126Z"/><polygon class="cls-12" points="2937.894 2499.34 2843.788 2517.761 2809.774 2550.466 2873.834 2552.466 2852.591 2535.259 2942.018 2510.925 2937.894 2499.34"/><path class="cls-4" d="M2875.48,2539.148c-.598,0-1.126-.052-1.553-.116-10.333-1.566-21.15-17.379-21.435-31.333-.394-19.266-2.365-36.406-2.385-36.577-.159-1.372,.823-2.613,2.194-2.772,1.388-.167,2.612,.823,2.772,2.194,.021,.174,2.019,17.552,2.416,37.054,.253,12.341,9.896,25.386,17.186,26.491,3.088,.472,5.395-1.561,6.88-6.022,6.002-18.029-22.562-51.26-22.851-51.594-.904-1.043-.792-2.621,.251-3.526,1.042-.905,2.62-.792,3.526,.25,1.257,1.449,30.716,35.729,23.817,56.45-2.701,8.114-7.712,9.502-10.82,9.502Z"/><path d="M2843.683,2006.602c-.236,10.643-.505,21.252-.741,31.862,1.515,.067,51.598,1.819,140.582-2.358-1.583-10.812-2.998-21.657-3.941-32.502-2.963-34.421-.606-70.662,16.436-100.738-51.161-2.728-102.288-5.456-164.058-5.759,.202,34.758,4.884,69.483,11.721,109.495Z"/></g><g><polygon class="cls-4" points="2905.105 2565.672 2911.108 2581.278 2926.314 2583.279 2935.118 2565.672 2945.522 2588.481 2959.928 2588.481 2968.731 2565.672 2974.334 2588.481 2992.741 2588.481 3001.945 2565.672 3006.747 2588.481 3015.951 2588.481 3026.454 2565.672 3080.777 2562.871 3080.777 2588.481 3092.382 2588.481 3103.987 2562.871 3103.987 2588.481 3115.592 2588.481 3124.395 2562.871 3129.197 2588.481 3137.601 2588.481 3144.403 2558.069 2925.514 2554.867 2905.105 2565.672"/><path class="cls-5" d="M3026.917,2198.143c2.324,40.518,4.681,81.035,7.005,121.553,.674,11.687,1.415,23.644,5.625,34.59,2.593,6.669,6.433,12.832,8.622,19.636,2.357,7.376,2.728,15.19,3.065,22.903,1.347,31.525,2.694,63.016,8.521,96.73,23.037-4.951,46.041-9.902,71.504-14.011-4.513-126.537,68.304-246.743,61.265-373.146-1.314-23.576-5.423-46.917-8.824-70.291-1.583-10.812-2.998-21.657-3.941-32.502-2.963-34.421-.606-70.662,16.436-100.738-51.161-2.728-102.288-5.456-164.058-5.759,.202,34.758,4.884,69.483,11.721,109.495-.236,10.643-.505,21.252-.741,31.862-.876,35.061-1.853,69.988-3.335,104.376-14.146,13.54-14.011,35.769-12.865,55.303Z"/><path class="cls-3" d="M3098.609,2161.983c-2.27,0-8.601-2.289-32.495-14.034-1.216-.597-1.734-2.055-1.17-3.286s2.013-1.788,3.254-1.256l30.031,12.824c2.623,1.12,2.763,2.485,2.81,2.935,.092,.904-.344,1.854-1.09,2.373-.324,.226-.639,.444-1.34,.444Zm-1.85-.887h0Z"/><path class="cls-3" d="M3084.104,2365.056c-.979,0-1.909-.579-2.309-1.54-.531-1.274,.072-2.738,1.347-3.269,12.235-5.093,16.042-20.78,17.991-33.878,4.793-32.196,7.176-65.028,7.083-97.582-.004-1.381,1.112-2.503,2.493-2.507h.007c1.378,0,2.496,1.114,2.5,2.493,.094,32.804-2.308,65.888-7.138,98.332-2.144,14.398-6.469,31.702-21.015,37.757-.314,.131-.64,.193-.96,.193Z"/><path class="cls-14" d="M3131.269,2479.529s-31.835,9.711-47.166-2.894-24.335-19.208-44.743-11.405c-20.408,7.803-46.819,42.017-88.836,58.824-42.017,16.807-57.023,28.212-58.824,40.817-1.801,12.605,134.455,9.604,162.667,3.601,28.212-6.002,53.443,3.191,81.634,0,21.209-2.401,20.608-18.808,11.605-42.818-9.004-24.01-16.335-46.126-16.335-46.126Z"/><polygon class="cls-12" points="3138.069 2499.34 3043.962 2517.761 3009.948 2550.466 3074.008 2552.466 3052.766 2535.259 3142.192 2510.925 3138.069 2499.34"/><path class="cls-4" d="M3075.655,2539.148c-.598,0-1.126-.052-1.553-.116-10.333-1.566-21.15-17.379-21.435-31.333-.394-19.254-2.366-36.406-2.386-36.577-.159-1.372,.823-2.613,2.194-2.772,1.382-.167,2.612,.823,2.772,2.194,.02,.174,2.02,17.552,2.417,37.054,.253,12.341,9.896,25.386,17.186,26.491,3.09,.472,5.394-1.561,6.88-6.022,6.002-18.029-22.562-51.26-22.851-51.594-.904-1.043-.792-2.621,.251-3.526,1.042-.905,2.621-.792,3.526,.25,1.257,1.449,30.716,35.729,23.817,56.45-2.701,8.114-7.712,9.502-10.82,9.502Z"/><path d="M3043.858,2006.602c-.236,10.643-.505,21.252-.741,31.862,1.515,.067,51.598,1.819,140.582-2.358-1.583-10.812-2.998-21.657-3.941-32.502-2.963-34.421-.606-70.662,16.436-100.738-51.161-2.728-102.288-5.456-164.058-5.759,.202,34.758,4.884,69.483,11.721,109.495Z"/></g><path class="cls-14" d="M3244.388,1680.05c-9.802,57.647-24.474,174.499-24.474,174.499l.454,58.166c-4.317,1.039-8.634,1.98-12.919,2.856-5.421,1.168-10.842,2.239-16.229,3.181-2.564,.487-5.129,.941-7.693,1.331-5.453,.941-10.873,1.753-16.229,2.467-2.596,.357-5.16,.714-7.692,1.039-5.486,.682-10.874,1.266-16.229,1.818-87.834,8.699-158.529-2.175-158.529-2.175l-2.25-11.814c-103.746,13.989-186.468-.578-186.468-.578l16.361-335.956,330.886-11.653,16.229-.584,7.692-.26,16.229-.584,7.693-.26,16.229-.584,42.716-1.493c8.472,38.951,4.025,62.97-5.778,120.584Z"/><path class="cls-10" d="M2983.248,1899.606c-.057,0-.114-.002-.171-.006-1.378-.093-2.419-1.285-2.326-2.662,.062-.91,6.107-91.766,3.277-157.313-2.822-65.369-14.854-110.435-14.976-110.883-.36-1.332,.427-2.705,1.76-3.066,1.33-.361,2.705,.426,3.066,1.759,.122,.453,12.297,46.01,15.146,111.976,2.842,65.826-3.224,156.952-3.285,157.864-.089,1.32-1.188,2.332-2.491,2.332Z"/><path class="cls-12" d="M3159.606,1562.647v360.942c-5.486,.682-10.874,1.266-16.229,1.818v-362.176l16.229-.584Z"/><path class="cls-12" d="M3183.528,1561.803v358.281c-5.453,.941-10.873,1.753-16.229,2.467v-360.163l16.229-.584Z"/><path class="cls-12" d="M3207.45,1560.959v354.613c-5.421,1.168-10.842,2.239-16.229,3.181v-357.21l16.229-.584Z"/><path d="M2864.695,1872.932c0,11.196-9.16,18.242-20.746,18.242-15.111,0-24.506-9.473-24.506-27.167,0-18.947,11.43-29.517,27.949-29.517,5.795,0,11.432,1.331,15.268,3.758l-4.697,9.317c-3.053-2.036-6.576-2.74-10.256-2.74-9.16,0-15.033,5.401-15.424,15.893,3.209-3.21,7.828-4.854,13.545-4.854,10.568,0,18.867,6.733,18.867,17.067Zm-12.291,.627c0-5.011-3.68-8.221-9.316-8.221-5.561,0-9.475,3.444-9.475,8.221,0,4.697,3.523,8.143,9.631,8.143,5.402,0,9.16-3.132,9.16-8.143Z"/></g><g><path class="cls-5" d="M3247.569,1105.6c-20.838,183.944,11.593,465.096,11.593,465.096,0,0-37.036-5.778-167.748,21.975-130.744,27.785-306.606-5.778-306.606-5.778,17.366-93.709,31.32-497.066,31.32-497.066l-175.359,103.04-72.695-160.152,77.907-64.779c11.556-17.366,34.699-19.67,34.699-19.67l79.849-67.125c0-10.387,13.86-16.197,13.86-16.197,0,0,56.478-36.776,136.295-54.888,26.097-5.972,54.726-9.9,84.685-9.9,39.762,0,81.861,5.81,121.623,14.444,81.731,17.69,153.563,47.162,174.564,61.931,31.225,21.974,101.823,126.103,101.823,126.103,20.806,21.975,10.387,35.867,10.387,35.867l43.982,70.566,24.279,21.975-128.797,78.301-95.661-103.742Z"/><path class="cls-3" d="M2816.126,1092.327c-1.249,0-2.328-.934-2.479-2.205l-13.579-114.188c-.163-1.371,.816-2.615,2.188-2.778,1.359-.167,2.614,.816,2.777,2.187l13.579,114.188c.163,1.371-.816,2.615-2.188,2.778-.1,.012-.199,.018-.298,.018Z"/><path class="cls-3" d="M2656.004,1163.251c-.958,0-1.872-.554-2.285-1.485l-59.197-133.242c-.562-1.262,.008-2.739,1.27-3.3,1.257-.56,2.739,.007,3.299,1.27l59.197,133.242c.562,1.262-.008,2.739-1.27,3.3-.329,.146-.674,.216-1.014,.216Z"/><path class="cls-3" d="M2703.245,1152.067c-.664,0-1.327-.263-1.818-.785-.947-1.004-.901-2.586,.103-3.534l81.564-76.937c1.005-.946,2.588-.902,3.534,.103,.947,1.004,.901,2.586-.103,3.534l-81.564,76.938c-.483,.455-1.1,.681-1.716,.681Z"/><path class="cls-3" d="M2666.799,964.062c-1.317,0-2.42-1.03-2.494-2.361-.076-1.378,.979-2.558,2.357-2.635,.724-.041,72.8-4.249,110.062-23.444,1.228-.631,2.734-.15,3.367,1.078,.632,1.228,.149,2.735-1.078,3.368-38.214,19.686-109.075,23.824-112.073,23.991-.047,.002-.094,.004-.141,.004Z"/><path class="cls-3" d="M3247.572,1108.101c-.103,0-.206-.006-.312-.02-1.37-.17-2.343-1.419-2.172-2.789l4.648-37.405c.171-1.37,1.405-2.35,2.789-2.173,1.37,.17,2.343,1.419,2.172,2.789l-4.648,37.405c-.157,1.266-1.234,2.192-2.478,2.192Z"/><path class="cls-3" d="M3377.942,1014.391c-.124,0-.25-.009-.376-.028-25.461-3.845-83.019-60.471-85.456-62.88-.982-.97-.992-2.553-.021-3.535,.971-.982,2.553-.992,3.535-.021,.586,.579,58.827,57.889,82.688,61.492,1.365,.207,2.305,1.48,2.099,2.845-.187,1.239-1.253,2.127-2.469,2.127Z"/><polygon class="cls-14" points="3403.778 1038.5 3269.546 1129.434 3325.806 1190.446 3447.742 1109.074 3403.778 1038.5"/><path class="cls-3" d="M2979.175,1591.15c-1.177,0-2.226-.835-2.453-2.033-.258-1.356,.633-2.665,1.989-2.923,1.083-.206,108.948-20.991,165.72-57.325,1.16-.743,2.709-.406,3.453,.758,.744,1.163,.405,2.709-.758,3.453-57.588,36.856-166.39,57.819-167.481,58.026-.158,.03-.314,.044-.47,.044Z"/><path class="cls-3" d="M3116.993,814.6c-25.091,14.412-67.417,34.633-109.289,36.094-47.357,1.655-81.667-25.48-97.02-40.639,7.401-1.688,14.996-3.213,22.754-4.511,19.67-3.376,40.444-5.388,61.932-5.388,29.602,0,60.503,3.213,90.787,8.439,10.387,1.785,20.676,3.798,30.836,6.005Z"/><path class="cls-14" d="M3116.993,814.6c-25.091,14.412-67.417,34.633-109.289,36.094-47.357,1.655-81.667-25.48-97.02-40.639,7.401-1.688,14.996-3.213,22.754-4.511,17.852,16.067,42.489,32.394,68.099,31.257,29.051-1.266,62.159-16.132,84.62-28.207,10.387,1.785,20.676,3.798,30.836,6.005Z"/><polygon class="cls-14" points="2849.599 1024.038 2882.572 975.639 2917.859 1024.038 2849.599 1024.038"/><g><path class="cls-9" d="M3343.231,1209.343l-106.343,161.202-52.93-16.969-34.708,10.798s-18.897,12.341-24.682,17.161c-5.785,4.821,0,9.834,0,9.834,0,0-7.424,3.599-7.135,7.295,.289,3.696,2.892,9.481,10.702,8.902,7.809-.578,32.973-8.902,32.973-8.902,0,0-28.634,18.158-29.791,19.604s3.76,10.991,14.462,7.231c10.702-3.76,21.114-7.231,21.114-7.231,0,0-4.628,4.923-3.471,8.102,1.157,3.178,8.966,3.474,15.619,0,6.652-3.474,9.545-4.92,9.545-4.92l13.305,2.603s28.345,36.155,53.509,12.726c0,0,18.8-23.428,51.773-48.881,32.973-25.453,167.758-149.439,178.17-178.556,10.413-29.117-26.623-70.211-26.623-70.211l-115.488,70.211Z"/><path class="cls-15" d="M3124.568,1393.87c-.955,0-1.868-.551-2.283-1.48-.563-1.26,0-2.739,1.262-3.303l31.045-13.883c.219-.098,.45-.164,.687-.195l30.08-4.049c1.374-.182,2.627,.776,2.812,2.144s-.775,2.627-2.144,2.811l-29.723,4.001-30.716,13.736c-.331,.148-.678,.218-1.02,.218Z"/><path class="cls-15" d="M3166.895,1420.769c-.896,0-1.762-.483-2.211-1.33-.646-1.22-.182-2.733,1.038-3.38l20.921-11.087c.36-.191,.763-.291,1.171-.291h12.341c1.381,0,2.5,1.119,2.5,2.5s-1.119,2.5-2.5,2.5h-11.72l-20.371,10.796c-.373,.198-.774,.292-1.169,.292Z"/><path class="cls-15" d="M3161.106,1401.165c-1.075,0-2.068-.699-2.394-1.781-.397-1.322,.353-2.716,1.675-3.114l29.406-8.838c1.324-.398,2.717,.353,3.114,1.674,.397,1.322-.353,2.716-1.675,3.114l-29.406,8.838c-.24,.072-.482,.106-.721,.106Z"/></g><path d="M3060.58,1167.312c0,22.392-18.32,36.484-41.494,36.484-30.221,0-49.012-18.947-49.012-54.335,0-37.894,22.861-59.033,55.9-59.033,11.588,0,22.861,2.662,30.535,7.517l-9.395,18.633c-6.107-4.071-13.154-5.48-20.514-5.48-18.32,0-30.064,10.805-30.848,31.787,6.42-6.42,15.658-9.708,27.09-9.708,21.139,0,37.736,13.466,37.736,34.136Zm-24.584,1.253c0-10.021-7.359-16.442-18.633-16.442-11.117,0-18.947,6.89-18.947,16.442,0,9.395,7.047,16.285,19.26,16.285,10.805,0,18.32-6.263,18.32-16.285Z"/><polygon class="cls-14" points="3132.762 983.834 3189.453 983.834 3187.717 1047.852 3161.108 1064.242 3135.944 1047.852 3132.762 983.834"/></g><g><path class="cls-9" d="M2879.341,623.265c-5.121,33.558-7.008,67.61-5.626,101.528,.502,12.334,1.529,25.01,6.985,36.084,9.685,19.656,31.039,30.271,51.118,39.044,14.496,6.334,30.036,12.56,45.676,10.187,11.852-1.799,22.365-8.36,32.457-14.83,24.392-15.636,49.473-32.538,63.311-57.441,12.912,.852,26.048-5.878,32.899-16.856,6.851-10.978,7.125-25.735,.687-36.96-2.82-4.917-8.042-9.555-13.537-8.164-1.931,.489-3.606,1.675-5.164,2.916-4.242,3.379-8.008,7.355-11.904,12.719-.758-22.557-4.738-45.004-11.782-66.447-1.846-5.619-3.968-11.29-7.735-15.849-4.146-5.018-9.983-8.323-15.882-11.075-48.946-22.828-110.022-12.415-161.502,25.144Z"/><path class="cls-1" d="M2926.904,750.621c26.407-2.159,52.324-10.113,75.395-23.14-2.35,8.337-4.737,16.736-8.716,24.431s-9.71,14.729-17.346,18.818c-5.412,2.898-11.605,4.21-17.743,4.159-14.076-.116-27.877-7.709-31.59-24.268Z"/><path class="cls-4" d="M3021.944,622.863s-134.204,10.413-148.667,0c-14.463-10.413-4.629-54.955,23.717-56.112,0,0,57.847-59.004,128.421-24.296,70.574,34.708,77.516,45.07,94.291,43.649l-12.148,14.777s1.157,32.973,12.148,50.327l-12.726,2.892-4.368,24.672s-13.565-10.19-31.498,19.592c0,0-16.776-4.349-12.726-36.165,0,0-17.933-2.892-21.404-17.354s-6.942-24.296-6.942-24.296l-8.099,2.314Z"/><path class="cls-14" d="M2896.993,566.751s55.726-8.484,101.619,3.085,84.586,70.171,89.535,108.937l5.164-2.916s-7.928-50.873-36.466-80.183c-28.538-29.309-60.161-36.637-94.484-38.565-34.323-1.928-58.572,3.615-58.572,3.615l-6.796,6.026Z"/></g></g><g><path class="cls-13" d="M1641.744,1190.999l78.673-118.37-129.578-175.292-53.359-25.578s-52.15,10.666-61.406,98.991c0,0,3.697,36.116,48.818,79.699,45.121,43.584,116.852,140.55,116.852,140.55Z"/><path class="cls-11" d="M1720.416,1072.63l36.251,32.804,288.08,101.209s50.52-11.955,81.372-4.242c30.852,7.713,35.48,20.054,35.48,20.054,0,0,53.991,66.332,50.906,74.045-3.085,7.713-21.441,9.256-21.441,9.256,0,0-11.629,7.231-16.835,7.231s-11.569-3.182-11.569-3.182c0,0-7.809,2.603-12.437,3.182s-15.04-4.917-15.04-4.917c0,0-11.666,4.049-17.547,3.471-5.881-.578-22.368-15.04-22.368-15.04,0,0-47.841-5.206-68.174-25.453l-329.817-65.368-42.668-34.037,65.807-99.012Z"/><path class="cls-6" d="M2099.897,1287.045c-.951,0-1.86-.545-2.278-1.468-.57-1.257-.013-2.739,1.245-3.309,28.391-12.871,65.585-38.102,65.958-38.355,1.142-.776,2.697-.479,3.473,.661,.777,1.142,.481,2.696-.661,3.473-.376,.256-37.919,25.725-66.706,38.775-.335,.152-.686,.224-1.031,.224Z"/><path class="cls-6" d="M2191.064,1308.255c-.652,0-1.304-.254-1.794-.759l-32.55-33.551c-.961-.991-.938-2.574,.054-3.535,.99-.96,2.574-.938,3.535,.054l32.55,33.551c.961,.991,.938,2.574-.054,3.535-.485,.471-1.113,.706-1.741,.706Z"/><path class="cls-6" d="M2162.659,1312.304c-.574,0-1.151-.197-1.622-.598l-29.599-25.26c-1.05-.896-1.175-2.475-.279-3.525,.897-1.05,2.475-1.173,3.525-.279l29.599,25.26c1.05,.896,1.175,2.475,.279,3.525-.495,.579-1.197,.877-1.903,.877Z"/><path class="cls-6" d="M2135.181,1310.569c-.508,0-1.021-.154-1.464-.475l-20.247-14.655c-1.119-.81-1.369-2.373-.56-3.491,.81-1.118,2.374-1.368,3.491-.56l20.247,14.655c1.119,.81,1.369,2.373,.56,3.491-.489,.675-1.253,1.034-2.027,1.034Z"/><path class="cls-6" d="M1732.775,1083.813s-29.131,75.27-11.489,126.624l-24.008-4.758-42.668-34.037,65.807-99.012,12.359,11.184Z"/><path class="cls-16" d="M1641.744,1193.5c-.792,0-1.538-.375-2.01-1.013-.716-.968-72.125-97.299-116.579-140.238-.993-.959-1.021-2.542-.062-3.535,.96-.993,2.542-1.021,3.535-.062,40.407,39.03,102.743,121.621,114.998,138.007l75.737-113.953-128.536-173.882c-.821-1.11-.586-2.676,.524-3.497,1.112-.821,2.676-.586,3.497,.524l129.579,175.292c.625,.846,.654,1.994,.072,2.87l-78.673,118.37c-.451,.679-1.205,1.095-2.019,1.115-.021,0-.042,0-.063,0Z"/></g><path class="cls-9" d="M2570.634,1038.353l-58.864,46.039-297.722,113.381s-38.409-13.112-59.698-10.027-50.598,2.314-50.598,10.027,23.139,24.682,57.847,24.682l43.964,60.161,35.48-20.054,299.264-67.103,91.563-22.196-61.237-134.91Z"/><polygon class="cls-15" points="2556.044 1049.764 2575.22 1186.996 2631.871 1173.263 2570.634 1038.353 2556.044 1049.764"/><path class="cls-15" d="M2212.636,1253.493c-.101,0-.203-.006-.305-.019-25.877-3.152-51.416-28.179-52.49-29.243-.981-.971-.989-2.553-.018-3.535,.971-.982,2.554-.99,3.535-.019,.251,.249,25.411,24.89,49.577,27.833,1.371,.167,2.346,1.413,2.179,2.784-.154,1.268-1.232,2.198-2.479,2.198Z"/></g></svg>